<svg xmlns="http://www.w3.org/2000/svg" version="1.1" xmlns:xlink="http://www.w3.org/1999/xlink" xmlns:svgjs="http://svgjs.com/svgjs" width="1450" height="560" preserveAspectRatio="none" viewBox="0 0 1450 560"><g mask="url(&quot;#SvgjsMask1328&quot;)" fill="none"><use xlink:href="#SvgjsG1332" transform="translate(0, 0)" fill="#0f457b"></use><use xlink:href="#SvgjsG1332" transform="translate(0, 312)" fill="rgba(0, 136, 204, 1)"></use><use xlink:href="#SvgjsG1332" transform="translate(312, 0)" fill="rgba(0, 136, 204, 1)"></use><use xlink:href="#SvgjsG1332" transform="translate(312, 312)" fill="#0f457b"></use><use xlink:href="#SvgjsG1332" transform="translate(624, 0)" fill="#0f457b"></use><use xlink:href="#SvgjsG1332" transform="translate(624, 312)" fill="#0f457b"></use><use xlink:href="#SvgjsG1332" transform="translate(936, 0)" fill="rgba(0, 136, 204, 1)"></use><use xlink:href="#SvgjsG1332" transform="translate(936, 312)" fill="#0f457b"></use><use xlink:href="#SvgjsG1332" transform="translate(1248, 0)" fill="#0f457b"></use><use xlink:href="#SvgjsG1332" transform="translate(1248, 312)" fill="#0f457b"></use></g><defs><mask id="SvgjsMask1328"><rect width="1450" height="560" fill="#ffffff"></rect></mask><g id="SvgjsG1329"><path d="M7.45 12.652S6.4 11.121 3.725 11.121C1.274 11.121 0 11.833 0 11.833V1.937s1.274-0.712 3.725-0.729C6.4 1.19 7.45 2.756 7.45 2.756V12.652z m1.087 0s1.05-1.531 3.725-1.531c2.451 0 3.725 0.712 3.725 0.713V1.937s-1.274-0.712-3.725-0.729c-2.675-0.017-3.725 1.548-3.725 1.548v9.896z"></path><path d="M8.012 15.733S6.4 13.411 3.725 13.411c-2.451 0-3.725 0.712-3.725 0.712v-1.186s1.274-0.712 3.725-0.729c2.675-0.018 4.287 2.34 4.287 2.34V15.733z m0 0s1.612-2.323 4.287-2.323c2.451 0 3.725 0.712 3.725 0.712v-1.185s-1.274-0.712-3.725-0.729c-2.675-0.019-4.287 2.339-4.287 2.339v1.185z"></path></g><g id="SvgjsG1330"><path d="M11.974 14.95h-0.243c-0.142-0.162-0.195-0.364-0.152-0.614 0.071-0.413 0.364-0.754 0.504-0.803l-0.002-0.005a0.525 0.525 0 0 0 0.346-0.491l0.01-10.776c0-0.289-0.234-0.525-0.517-0.527 0 0-2.157-0.002-2.749-0.006l0.003-1.204c0-0.213-0.123-0.403-0.318-0.485a0.517 0.517 0 0 0-0.564 0.11L4.684 3.773C4.051 4.41 3.55 5.613 3.549 6.518L3.52 14.057c-0.002 1.054 0.844 1.918 1.892 1.923l6.56 0.02c0.285 0 0.518-0.235 0.518-0.521v-0.002c0-0.291-0.229-0.525-0.516-0.526M11.398 2.784c0 0.899-0.008 8.829-0.01 9.73h-5.912l3.702-3.137-0.007-6.597c0.336 0.002 1.916 0.004 2.227 0.004M4.557 14.06s0.002-0.434 0.002-0.498H10.75c-0.089 0.19-0.16 0.391-0.194 0.594-0.049 0.28-0.024 0.542 0.038 0.79l-5.179-0.016c-0.474 0-0.858-0.389-0.858-0.87"></path></g><g id="SvgjsG1331"><path d="M13.031 12.687V1.875H9.957L9.97 0.071C9.957 0.078 4.189 2.651 4.189 2.651 3.256 3.097 2.919 3.747 2.919 4.632V13.347c0 1.389 1.116 2.528 2.401 2.528h7.737V14.275c-0.948-0.116-0.948-1.469-0.026-1.588z m-7.749 1.422c-0.848-0.005-0.844-1.194 0-1.194h5.399c-0.375 0.278-0.351 0.936 0.051 1.195H5.282z m6.021-2.884H6.577l3.38-1.524V3.628h1.347v7.597h-0.001z" fill-rule="evenodd"></path></g><g id="SvgjsG1332"><use xlink:href="#SvgjsG1329" transform="translate(0, 0) scale(1.3)" fill="#0f457b"></use><use xlink:href="#SvgjsG1330" transform="translate(0, 31.200000000000003) scale(1.3)" fill="#0f457b"></use><use xlink:href="#SvgjsG1331" transform="translate(0, 62.400000000000006) scale(1.3)" fill="rgba(0, 136, 204, 1)"></use><use xlink:href="#SvgjsG1329" transform="translate(0, 93.60000000000001) scale(1.3)" fill="#0f457b"></use><use xlink:href="#SvgjsG1330" transform="translate(0, 124.80000000000001) scale(1.3)" fill="rgba(0, 136, 204, 1)"></use><use xlink:href="#SvgjsG1331" transform="translate(0, 156) scale(1.3)" fill="#0f457b"></use><use xlink:href="#SvgjsG1329" transform="translate(0, 187.20000000000002) scale(1.3)" fill="#0f457b"></use><use xlink:href="#SvgjsG1330" transform="translate(0, 218.40000000000003) scale(1.3)" fill="rgba(0, 136, 204, 1)"></use><use xlink:href="#SvgjsG1331" transform="translate(0, 249.60000000000002) scale(1.3)" fill="#0f457b"></use><use xlink:href="#SvgjsG1329" transform="translate(0, 280.8) scale(1.3)" fill="rgba(0, 136, 204, 1)"></use><use xlink:href="#SvgjsG1330" transform="translate(31.200000000000003, 0) scale(1.3)" fill="rgba(0, 136, 204, 1)"></use><use xlink:href="#SvgjsG1331" transform="translate(31.200000000000003, 31.200000000000003) scale(1.3)" fill="rgba(0, 136, 204, 1)"></use><use xlink:href="#SvgjsG1329" transform="translate(31.200000000000003, 62.400000000000006) scale(1.3)" fill="#0f457b"></use><use xlink:href="#SvgjsG1330" transform="translate(31.200000000000003, 93.60000000000001) scale(1.3)" fill="rgba(0, 136, 204, 1)"></use><use xlink:href="#SvgjsG1331" transform="translate(31.200000000000003, 124.80000000000001) scale(1.3)" fill="rgba(0, 136, 204, 1)"></use><use xlink:href="#SvgjsG1329" transform="translate(31.200000000000003, 156) scale(1.3)" fill="#0f457b"></use><use xlink:href="#SvgjsG1330" transform="translate(31.200000000000003, 187.20000000000002) scale(1.3)" fill="rgba(0, 136, 204, 1)"></use><use xlink:href="#SvgjsG1331" transform="translate(31.200000000000003, 218.40000000000003) scale(1.3)" fill="#0f457b"></use><use xlink:href="#SvgjsG1329" transform="translate(31.200000000000003, 249.60000000000002) scale(1.3)" fill="#0f457b"></use><use xlink:href="#SvgjsG1330" transform="translate(31.200000000000003, 280.8) scale(1.3)" fill="#0f457b"></use><use xlink:href="#SvgjsG1331" transform="translate(62.400000000000006, 0) scale(1.3)" fill="rgba(0, 136, 204, 1)"></use><use xlink:href="#SvgjsG1329" transform="translate(62.400000000000006, 31.200000000000003) scale(1.3)" fill="rgba(0, 136, 204, 1)"></use><use xlink:href="#SvgjsG1330" transform="translate(62.400000000000006, 62.400000000000006) scale(1.3)" fill="rgba(0, 136, 204, 1)"></use><use xlink:href="#SvgjsG1331" transform="translate(62.400000000000006, 93.60000000000001) scale(1.3)" fill="rgba(0, 136, 204, 1)"></use><use xlink:href="#SvgjsG1329" transform="translate(62.400000000000006, 124.80000000000001) scale(1.3)" fill="#0f457b"></use><use xlink:href="#SvgjsG1330" transform="translate(62.400000000000006, 156) scale(1.3)" fill="rgba(0, 136, 204, 1)"></use><use xlink:href="#SvgjsG1331" transform="translate(62.400000000000006, 187.20000000000002) scale(1.3)" fill="#0f457b"></use><use xlink:href="#SvgjsG1329" transform="translate(62.400000000000006, 218.40000000000003) scale(1.3)" fill="#0f457b"></use><use xlink:href="#SvgjsG1330" transform="translate(62.400000000000006, 249.60000000000002) scale(1.3)" fill="#0f457b"></use><use xlink:href="#SvgjsG1331" transform="translate(62.400000000000006, 280.8) scale(1.3)" fill="rgba(0, 136, 204, 1)"></use><use xlink:href="#SvgjsG1329" transform="translate(93.60000000000001, 0) scale(1.3)" fill="#0f457b"></use><use xlink:href="#SvgjsG1330" transform="translate(93.60000000000001, 31.200000000000003) scale(1.3)" fill="rgba(0, 136, 204, 1)"></use><use xlink:href="#SvgjsG1331" transform="translate(93.60000000000001, 62.400000000000006) scale(1.3)" fill="#0f457b"></use><use xlink:href="#SvgjsG1329" transform="translate(93.60000000000001, 93.60000000000001) scale(1.3)" fill="rgba(0, 136, 204, 1)"></use><use xlink:href="#SvgjsG1330" transform="translate(93.60000000000001, 124.80000000000001) scale(1.3)" fill="#0f457b"></use><use xlink:href="#SvgjsG1331" transform="translate(93.60000000000001, 156) scale(1.3)" fill="#0f457b"></use><use xlink:href="#SvgjsG1329" transform="translate(93.60000000000001, 187.20000000000002) scale(1.3)" fill="#0f457b"></use><use xlink:href="#SvgjsG1330" transform="translate(93.60000000000001, 218.40000000000003) scale(1.3)" fill="rgba(0, 136, 204, 1)"></use><use xlink:href="#SvgjsG1331" transform="translate(93.60000000000001, 249.60000000000002) scale(1.3)" fill="rgba(0, 136, 204, 1)"></use><use xlink:href="#SvgjsG1329" transform="translate(93.60000000000001, 280.8) scale(1.3)" fill="rgba(0, 136, 204, 1)"></use><use xlink:href="#SvgjsG1330" transform="translate(124.80000000000001, 0) scale(1.3)" fill="rgba(0, 136, 204, 1)"></use><use xlink:href="#SvgjsG1331" transform="translate(124.80000000000001, 31.200000000000003) scale(1.3)" fill="rgba(0, 136, 204, 1)"></use><use xlink:href="#SvgjsG1329" transform="translate(124.80000000000001, 62.400000000000006) scale(1.3)" fill="#0f457b"></use><use xlink:href="#SvgjsG1330" transform="translate(124.80000000000001, 93.60000000000001) scale(1.3)" fill="#0f457b"></use><use xlink:href="#SvgjsG1331" transform="translate(124.80000000000001, 124.80000000000001) scale(1.3)" fill="rgba(0, 136, 204, 1)"></use><use xlink:href="#SvgjsG1329" transform="translate(124.80000000000001, 156) scale(1.3)" fill="rgba(0, 136, 204, 1)"></use><use xlink:href="#SvgjsG1330" transform="translate(124.80000000000001, 187.20000000000002) scale(1.3)" fill="rgba(0, 136, 204, 1)"></use><use xlink:href="#SvgjsG1331" transform="translate(124.80000000000001, 218.40000000000003) scale(1.3)" fill="rgba(0, 136, 204, 1)"></use><use xlink:href="#SvgjsG1329" transform="translate(124.80000000000001, 249.60000000000002) scale(1.3)" fill="#0f457b"></use><use xlink:href="#SvgjsG1330" transform="translate(124.80000000000001, 280.8) scale(1.3)" fill="#0f457b"></use><use xlink:href="#SvgjsG1331" transform="translate(156, 0) scale(1.3)" fill="rgba(0, 136, 204, 1)"></use><use xlink:href="#SvgjsG1329" transform="translate(156, 31.200000000000003) scale(1.3)" fill="rgba(0, 136, 204, 1)"></use><use xlink:href="#SvgjsG1330" transform="translate(156, 62.400000000000006) scale(1.3)" fill="rgba(0, 136, 204, 1)"></use><use xlink:href="#SvgjsG1331" transform="translate(156, 93.60000000000001) scale(1.3)" fill="#0f457b"></use><use xlink:href="#SvgjsG1329" transform="translate(156, 124.80000000000001) scale(1.3)" fill="rgba(0, 136, 204, 1)"></use><use xlink:href="#SvgjsG1330" transform="translate(156, 156) scale(1.3)" fill="rgba(0, 136, 204, 1)"></use><use xlink:href="#SvgjsG1331" transform="translate(156, 187.20000000000002) scale(1.3)" fill="#0f457b"></use><use xlink:href="#SvgjsG1329" transform="translate(156, 218.40000000000003) scale(1.3)" fill="#0f457b"></use><use xlink:href="#SvgjsG1330" transform="translate(156, 249.60000000000002) scale(1.3)" fill="#0f457b"></use><use xlink:href="#SvgjsG1331" transform="translate(156, 280.8) scale(1.3)" fill="rgba(0, 136, 204, 1)"></use><use xlink:href="#SvgjsG1329" transform="translate(187.20000000000002, 0) scale(1.3)" fill="#0f457b"></use><use xlink:href="#SvgjsG1330" transform="translate(187.20000000000002, 31.200000000000003) scale(1.3)" fill="#0f457b"></use><use xlink:href="#SvgjsG1331" transform="translate(187.20000000000002, 62.400000000000006) scale(1.3)" fill="rgba(0, 136, 204, 1)"></use><use xlink:href="#SvgjsG1329" transform="translate(187.20000000000002, 93.60000000000001) scale(1.3)" fill="rgba(0, 136, 204, 1)"></use><use xlink:href="#SvgjsG1330" transform="translate(187.20000000000002, 124.80000000000001) scale(1.3)" fill="rgba(0, 136, 204, 1)"></use><use xlink:href="#SvgjsG1331" transform="translate(187.20000000000002, 156) scale(1.3)" fill="rgba(0, 136, 204, 1)"></use><use xlink:href="#SvgjsG1329" transform="translate(187.20000000000002, 187.20000000000002) scale(1.3)" fill="#0f457b"></use><use xlink:href="#SvgjsG1330" transform="translate(187.20000000000002, 218.40000000000003) scale(1.3)" fill="rgba(0, 136, 204, 1)"></use><use xlink:href="#SvgjsG1331" transform="translate(187.20000000000002, 249.60000000000002) scale(1.3)" fill="rgba(0, 136, 204, 1)"></use><use xlink:href="#SvgjsG1329" transform="translate(187.20000000000002, 280.8) scale(1.3)" fill="rgba(0, 136, 204, 1)"></use><use xlink:href="#SvgjsG1330" transform="translate(218.40000000000003, 0) scale(1.3)" fill="#0f457b"></use><use xlink:href="#SvgjsG1331" transform="translate(218.40000000000003, 31.200000000000003) scale(1.3)" fill="rgba(0, 136, 204, 1)"></use><use xlink:href="#SvgjsG1329" transform="translate(218.40000000000003, 62.400000000000006) scale(1.3)" fill="rgba(0, 136, 204, 1)"></use><use xlink:href="#SvgjsG1330" transform="translate(218.40000000000003, 93.60000000000001) scale(1.3)" fill="#0f457b"></use><use xlink:href="#SvgjsG1331" transform="translate(218.40000000000003, 124.80000000000001) scale(1.3)" fill="rgba(0, 136, 204, 1)"></use><use xlink:href="#SvgjsG1329" transform="translate(218.40000000000003, 156) scale(1.3)" fill="rgba(0, 136, 204, 1)"></use><use xlink:href="#SvgjsG1330" transform="translate(218.40000000000003, 187.20000000000002) scale(1.3)" fill="#0f457b"></use><use xlink:href="#SvgjsG1331" transform="translate(218.40000000000003, 218.40000000000003) scale(1.3)" fill="rgba(0, 136, 204, 1)"></use><use xlink:href="#SvgjsG1329" transform="translate(218.40000000000003, 249.60000000000002) scale(1.3)" fill="rgba(0, 136, 204, 1)"></use><use xlink:href="#SvgjsG1330" transform="translate(218.40000000000003, 280.8) scale(1.3)" fill="rgba(0, 136, 204, 1)"></use><use xlink:href="#SvgjsG1331" transform="translate(249.60000000000002, 0) scale(1.3)" fill="rgba(0, 136, 204, 1)"></use><use xlink:href="#SvgjsG1329" transform="translate(249.60000000000002, 31.200000000000003) scale(1.3)" fill="rgba(0, 136, 204, 1)"></use><use xlink:href="#SvgjsG1330" transform="translate(249.60000000000002, 62.400000000000006) scale(1.3)" fill="#0f457b"></use><use xlink:href="#SvgjsG1331" transform="translate(249.60000000000002, 93.60000000000001) scale(1.3)" fill="#0f457b"></use><use xlink:href="#SvgjsG1329" transform="translate(249.60000000000002, 124.80000000000001) scale(1.3)" fill="rgba(0, 136, 204, 1)"></use><use xlink:href="#SvgjsG1330" transform="translate(249.60000000000002, 156) scale(1.3)" fill="#0f457b"></use><use xlink:href="#SvgjsG1331" transform="translate(249.60000000000002, 187.20000000000002) scale(1.3)" fill="rgba(0, 136, 204, 1)"></use><use xlink:href="#SvgjsG1329" transform="translate(249.60000000000002, 218.40000000000003) scale(1.3)" fill="#0f457b"></use><use xlink:href="#SvgjsG1330" transform="translate(249.60000000000002, 249.60000000000002) scale(1.3)" fill="rgba(0, 136, 204, 1)"></use><use xlink:href="#SvgjsG1331" transform="translate(249.60000000000002, 280.8) scale(1.3)" fill="rgba(0, 136, 204, 1)"></use><use xlink:href="#SvgjsG1329" transform="translate(280.8, 0) scale(1.3)" fill="rgba(0, 136, 204, 1)"></use><use xlink:href="#SvgjsG1330" transform="translate(280.8, 31.200000000000003) scale(1.3)" fill="#0f457b"></use><use xlink:href="#SvgjsG1331" transform="translate(280.8, 62.400000000000006) scale(1.3)" fill="#0f457b"></use><use xlink:href="#SvgjsG1329" transform="translate(280.8, 93.60000000000001) scale(1.3)" fill="rgba(0, 136, 204, 1)"></use><use xlink:href="#SvgjsG1330" transform="translate(280.8, 124.80000000000001) scale(1.3)" fill="#0f457b"></use><use xlink:href="#SvgjsG1331" transform="translate(280.8, 156) scale(1.3)" fill="#0f457b"></use><use xlink:href="#SvgjsG1329" transform="translate(280.8, 187.20000000000002) scale(1.3)" fill="#0f457b"></use><use xlink:href="#SvgjsG1330" transform="translate(280.8, 218.40000000000003) scale(1.3)" fill="#0f457b"></use><use xlink:href="#SvgjsG1331" transform="translate(280.8, 249.60000000000002) scale(1.3)" fill="rgba(0, 136, 204, 1)"></use><use xlink:href="#SvgjsG1329" transform="translate(280.8, 280.8) scale(1.3)" fill="#0f457b"></use></g></defs></svg>